<svg width="400" height="400" viewBox="0 0 400 400" fill="none" xmlns="http://www.w3.org/2000/svg">
<path d="M283.772 217.702C283.772 217.702 283.745 217.702 283.745 217.688C284.535 218.648 283.758 217.688 283.772 217.702Z" fill="#220901"/>
<path d="M40.8718 41.0866C41.1629 40.6141 41.5372 40.628 42.0225 40.5724C46.6254 40.0303 54.6944 40.2666 59.6162 40.2388C67.5881 40.3211 75.6015 40.3211 83.5855 40.3211L84.1836 44.9089L84.5975 40.3211C89.317 40.3211 95.3696 40.3211 100.03 40.3211C102.334 40.3211 105.313 40.3778 107.739 40.6002C119.011 41.6148 109.375 47.9805 108.931 53.4568C107.891 66.4663 127.953 70.2329 131.655 56.9176C133.526 50.1627 130.365 50.2739 128.591 45.6733C127.537 42.9491 129.312 40.9615 132.029 40.6419C137.45 39.9886 142.857 40.4334 148.25 40.6141C151.758 40.7392 155.321 40.1832 158.718 41.2673C161.879 24.9221 176.783 14.2198 189.954 5.85258C191.285 5.00474 198.979 0.056687 199.742 0.00109085C201.475 -0.110101 213.786 8.31271 216.06 9.9111C227.193 17.7224 238.174 26.3954 241.362 40.4612C242.374 41.1839 262.755 40.3361 266.124 40.6002C277.257 41.4758 267.732 49.023 267.302 54.4714C266.997 58.3353 269.742 62.7691 273.07 64.5899C281.569 69.2183 293.326 61.3514 289.901 51.7055C289.277 49.9403 286.269 45.6594 286.185 44.4224C286.005 41.6843 289.194 40.7808 291.315 40.6141C296.944 40.1693 304.833 40.2388 310.586 40.2805C311.807 40.2805 314.535 40.2805 314.535 40.2805C315.038 41.524 315.263 42.8695 315.107 44.202C313.526 57.6958 306.146 69.1102 292.993 73.9161C270.644 82.0749 249.861 67.3141 242.652 46.3266C238.7 46.6601 235.262 47.1466 231.283 46.5767C214.965 44.2139 204.22 29.3002 200.033 14.331C199.063 16.4853 198.619 18.8482 197.787 21.072C193.85 31.5241 184.852 42.407 173.885 45.7011C168.339 47.369 162.808 47.369 157.068 47.3134C148.611 82.3806 97.8399 87.2453 85.7503 52.0113L84.3223 45.9513C83.2131 67.0083 66.2988 83.5899 45.4747 85.2299L53.613 87.5511C72.4961 94.723 80.7176 114.251 73.6052 133.237C69.2796 144.773 59.325 152.974 48.2891 157.783C47.9009 169.986 43.9635 181.578 34.6744 189.723C28.3801 195.255 23.3058 196.617 15.7775 199.397C15.417 199.522 14.9872 199.536 14.9318 200.036C34.6051 204.664 49.8974 222.538 48.8298 243.276C80.8146 251.309 86.3187 297.023 56.4274 311.701L45.1419 315.523C64.6628 317.886 80.981 332.244 83.8786 352.064C84.2391 354.482 84.3084 356.337 84.3084 358.791H40.8163L41.149 315.523L43.1455 315.356L40.8163 315.189C41.2045 307.74 40.3033 299.775 40.8163 292.381C40.9827 289.949 41.3431 285.32 44.6428 285.557C46.7779 285.71 48.8853 288.74 51.3808 289.476C61.6958 292.52 70.0976 280.067 63.5675 271.922C60.2401 267.766 54.6251 265.403 49.5646 267.877C47.4434 268.906 42.0779 274.118 40.8995 268.697C40.234 265.612 40.8163 263.332 40.8302 260.469C40.8718 254.312 40.8995 248.127 40.6638 241.969C21.6282 234.95 9.06721 217.577 0 200.217C9.58018 183.885 20.9073 163.982 40.7747 159.409C40.8163 154.934 40.8718 150.444 40.8302 145.955C40.8024 143.05 40.331 140.048 40.4697 136.962C40.5251 135.628 40.6222 132.779 40.8302 131.667C40.9827 130.805 42.2859 129.22 43.1178 128.97C45.5995 128.192 48.8576 131.653 51.4224 132.334C56.774 133.765 63.2902 130.263 65.0648 125.009C68.1843 115.752 59.1448 107.566 50.3549 110.596C47.7207 111.499 42.3414 116.878 40.8995 111.277C40.0122 107.858 40.8024 104.661 40.8302 101.381C40.8718 96.1129 40.7608 90.8313 40.8163 85.5635L43.811 85.3967L40.8163 84.7296V41.1283L40.8718 41.0866Z" fill="#0069AD"/>
<path d="M156.39 351.785L156.182 351.131C155.017 346.447 153.437 342.069 150.096 337.066C150.096 337.093 150.082 337.107 150.068 337.135C146.865 334.703 144.259 331.812 140.751 329.671C122.963 318.872 99.2971 323.278 89.2594 342.236C86.7222 347.017 84.8895 353.074 85.0452 358.72C89.8422 358.845 94.6526 358.72 99.4496 358.748C103.248 358.776 106.659 359.499 110.638 358.679C117.931 357.164 111.927 352.924 110.291 349.547C107.214 343.251 113.258 335.203 119.733 334.508C126.679 333.744 133.597 339.387 132.807 346.614C132.322 351.104 122.797 357.692 132.682 358.72C140.737 359.554 147.78 358.442 155.558 358.414C159.717 358.414 158.65 359.86 159.593 362.681C165.818 381.251 184.118 390.396 199.688 400C206.384 396.303 213.081 391.911 219.223 387.311C229.08 379.93 237.898 371.313 240.726 358.79C246.3 358.79 253.444 358.734 259.031 358.79C258.241 358.776 259.821 358.79 259.031 358.79C261.097 358.818 269.98 359.207 271.255 357.942C272.614 355.176 269.536 353.036 268.413 350.784C264.143 342.305 271.297 333.257 280.378 334.133C286.894 334.758 291.677 341.569 290.804 347.907C290.374 351.048 284.107 356.969 289.098 358.331C294.547 359.818 304.64 359.096 310.602 359.096C311.961 359.096 313.86 358.526 315.288 358.54C328.972 358.72 343.363 360.096 357.075 359.096C357.823 359.04 358.489 358.804 359.224 358.748V315.48H355.286L359.224 315.147C359.279 309.545 359.154 303.93 359.21 298.329C359.224 296.425 359.695 294.479 359.57 292.338C358.822 280.358 353.997 289.489 349.075 290.156C336.833 291.824 329.332 277.675 339.481 269.224C342.628 266.611 345.387 265.972 349.269 267.39C353.595 268.974 358.946 275.507 359.584 266.736C359.945 261.719 359.612 255.534 359.584 250.433C359.57 247.695 359.432 245.04 359.279 242.316C378.259 234.838 390.002 217.339 399.998 200.452C400.137 199.104 391.292 185.511 389.85 183.453C382.405 172.862 372.769 162.202 359.584 159.38C359.099 151.083 360.18 142.146 359.584 133.917C359.321 130.331 358.53 127.093 354.357 129.372C349.949 131.763 349.546 133.403 343.626 131.944C329.998 128.58 334.005 109.038 346.732 109.497C350.794 109.636 353.914 114.125 357.407 113.472C358.877 113.194 359.168 108.399 359.251 106.995C359.681 99.9898 358.905 92.5538 359.251 85.507C343.654 84.0198 329.346 95.9869 325.547 110.803C319.988 132.5 334.351 150.249 353.123 158.713C349.741 177.463 366.364 195.031 383.486 199.674L371.438 206.053C363.716 211.224 356.506 220.202 353.609 229.112C352.153 233.573 351.945 237.646 351.765 242.302C351.765 242.302 341.034 248.265 339.578 249.029C339.051 249.307 338.511 249.641 337.956 250.03C333.686 253.018 330.899 257.716 329.984 262.859C328.112 273.366 325.256 297.62 336.694 307.336C343.197 312.853 346.926 312.562 354.357 314.924C354.704 315.036 355.356 315.008 355.286 315.48C334.31 317.357 317.173 333.855 315.44 355.093C314.969 355.176 314.983 354.509 314.886 354.161C313.444 348.977 313.153 346.03 310.269 341.138C294.02 313.521 250.126 320.859 243.374 351.729C226.141 351.965 209.823 361.931 202.849 377.831C201.74 380.375 201.199 383.071 200.229 385.518C200.09 385.865 200.104 386.324 199.591 386.365C195.487 367.018 176.632 350.728 156.432 351.743" fill="#0069AD"/>
<path d="M359.225 85.201C358.033 85.3261 356.924 84.8813 355.745 84.8396C341.493 84.3392 329.154 76.959 321.778 64.6722C317.549 57.6254 315.012 48.4863 315.774 40.2581H359.225V41.1133V85.2149V85.201Z" fill="#0069AD"/>
<path d="M288.528 224.307C291.204 221.833 305.027 218.441 311.432 216.482C321.165 213.507 334.142 203.57 336.831 193.354C338.093 188.572 338.218 183.194 339.077 178.301C339.895 173.714 341.296 169.267 342.294 164.722C328.859 163.721 312.832 164.819 304.32 176.73L301.478 181.692C301.353 173.659 300.965 165.292 297.443 157.953C292.078 146.764 280.792 139.314 276.245 127.792C262.782 141.705 255.573 162.512 263.684 181.164C269.34 194.188 282.996 203.722 284.549 218.65" fill="#659256"/>
<path d="M105.174 175.881C105.825 174.658 106.81 173.366 106.907 172.712C107.836 166.333 110.498 163.442 115.475 161.496C115.35 161.607 115.6 161.385 115.475 161.496C117.083 159.258 122.407 153.782 118.303 145.859C117.083 143.496 116.709 142.621 113.049 138.826C115.863 139.98 120.009 142.252 121.395 142.961C121.964 143.253 122.089 143.009 122.324 142.536L122.607 140.673C122.524 140.937 122.552 140.312 122.607 140.673C122.579 137.824 119.329 124.246 121.617 122.578C123.114 121.494 124.376 122.12 125.942 122.578C129.187 123.537 132.084 125.747 135.176 126.971C148 132.044 156.471 124.427 163.279 114.42C163.39 113.697 163.182 114.031 162.807 113.919C160.95 113.363 158.856 113.127 156.915 112.502C149.359 110.111 144.493 106.65 136.063 108.763C131.336 109.944 127.204 112.974 123.447 115.921C123.142 115.587 126.026 111.932 126.442 111.431C132.362 104.51 142.247 99.0891 150.995 96.7819C157.123 95.1696 163.819 94.9611 169.032 90.9026C172.859 87.9143 175.036 82.4798 176.561 77.9765C163.154 83.4249 154.128 69.7205 140.736 77.5039C127.925 84.9399 124.944 99.9369 120.882 112.849C119.496 117.241 117.638 121.453 116.473 125.9C115.863 125.775 115.863 125.247 115.794 124.747C114.865 116.505 116.806 107.915 113.534 100.048C110.997 93.9465 105.728 89.1513 99.5449 86.9552C93.9992 100.368 85.3756 110.598 91.0738 125.886C94.5538 135.213 100.46 139.841 106.671 146.86C108.044 148.417 109.375 150.085 110.484 151.85C99.6974 146.707 87.4137 141.37 75.8648 147.597C71.248 150.085 67.6433 154.046 63.4563 157.118C62.5274 157.799 57.7165 160.537 57.5363 160.829C57.3699 161.079 57.2728 161.635 57.3976 161.829C57.6749 162.246 64.9952 164.679 66.0766 164.943C76.7937 167.597 85.4727 166.18 96.065 165.179C96.4393 165.137 97.8812 164.901 97.8812 165.499C94.8588 166.374 92.2662 168.612 89.4795 169.891C86.1659 171.406 82.2701 172.323 78.8456 173.866C66.035 179.648 57.3422 191.379 52.4065 204.263C60.0596 204.708 67.9206 204.207 75.2409 201.859C82.2839 199.607 88.4535 195.604 94.2349 191.115C94.2903 191.003 94.1794 191.226 94.2349 191.115C97.7841 186.403 101.458 181.788 104.051 177.591L105.188 175.881H105.174Z" fill="#659256"/>
<path d="M297.151 243.946L303.085 248.477C311.321 254.607 321.039 251.118 330.536 254.37C338.425 257.762 344.151 257.317 344.151 257.317C344.151 257.317 344.622 251.368 341.961 244.433C339.368 238.484 338.231 232.577 331.673 230.464C326.336 228.741 321.026 229.866 315.716 228.824C308.09 227.323 303.668 222.208 294.989 222.986C293.006 223.167 290.497 224.07 288.514 224.307" fill="#659256"/>
<path d="M172.132 279.778C167.141 277.735 160.812 276.206 155.391 277.374C149.041 278.75 144.688 284.504 138.698 286.936C135.731 288.145 132.667 288.548 129.506 288.868C129.354 289.507 129.742 289.507 130.061 289.799C137.7 296.763 143.579 304.921 153.408 308.98C158.552 311.106 164.444 312.26 169.99 312.482L162.198 318.139C156.583 323.185 152.507 329.926 150.095 337.028C149.263 347.161 151.939 353.373 151.939 353.373C151.939 353.373 153.103 353.109 156.389 351.747C162.115 347.049 168.631 349.287 173.706 348.314C190.454 345.104 199.479 333.331 207.34 319.224C190.759 310.537 182.808 295.957 172.132 279.778Z" fill="#659256"/>
<path d="M218.807 60.2249C222.398 57.598 225.698 54.4985 229.76 52.5666C227.916 57.0421 224.935 61.9484 225.49 67.0077C226.391 75.3471 237.288 78.5856 243.347 82.38C278.34 104.285 270.604 156.462 231.341 168.137C186.947 181.341 145.369 132.542 175.509 93.527C183.121 83.6726 190.011 82.4078 198.857 75.6668C207.702 68.9257 205.775 61.323 200.881 52.9001C204.971 54.2762 208.118 57.32 211.168 60.211C211.959 57.1394 213.622 54.3317 215.66 51.8994C216.672 51.8994 218.904 58.9601 218.821 60.211L218.807 60.2249Z" fill="#DE5722"/>
<path d="M260.469 247.267C259.179 247.893 255.381 249.714 252.552 249.658C249.433 254.801 242.265 257.15 238.854 250.992C231.548 253.577 227.195 246.211 231.395 240.165C226.446 237.649 225.392 233.34 228.428 228.657C217.212 221.818 228.359 202.999 237.579 216.689C243.014 213.09 248.823 213.354 252.233 219.344C255.45 218.802 259.914 217.44 262.285 220.498C262.576 220.873 263.616 222.861 263.616 223.152V228.643C266.333 228.907 268.662 227.628 271.421 227.975C277.993 228.809 277.328 240.193 270.603 241.819C266.86 242.722 268.607 242.389 265.834 244.029" fill="#DE5722"/>
<path d="M278.048 252.923C278.27 250.102 278.686 247.308 276.718 244.973C273.723 241.429 269.661 244.236 265.765 246.043C264.559 246.599 263.519 247.447 262.77 248.545L261.411 250.546C258.999 250.296 256.046 250.352 254.341 252.437C253.855 253.034 253.426 254.522 253.024 254.772C252.358 255.175 249.89 254.827 248.684 255.078C241.294 256.606 237.454 271.006 243.222 276.232C244.358 277.26 246.299 277.705 247.214 278.553C247.852 279.151 248.074 280.137 248.559 280.874C248.92 281.416 249.835 281.93 249.987 282.473C250.223 283.362 249.488 284.224 249.405 285.086C249.045 288.366 249.807 290.645 252.594 292.494C253.523 293.119 256.711 294.036 256.933 294.301C258.126 295.69 257.807 298.067 260.552 299.818C266.208 303.432 268.981 296.107 269.134 291.549C274.472 289.325 276.773 285.669 275.317 279.79C276.399 278.789 277.799 278.428 278.936 277.413C282.166 274.55 281.653 270.867 279.671 267.42C285.771 263.25 284.121 256.12 278.076 252.937L278.048 252.923Z" fill="#DE5722"/>
<path d="M237.732 286.198C242.21 287.074 245.038 290.59 244.29 295.274C244.096 296.511 242.501 299.166 242.501 299.68C242.501 300.083 243.292 301.237 243.472 301.904C245.829 310.508 234.862 315.219 230.259 307.547C226.835 309.965 222.093 309.938 219.653 306.143C219.182 305.421 218.835 303.35 218.267 303.183C211.917 306.032 207.882 302.988 206.856 296.511C201.671 298.846 193.408 294.399 196.902 288.352L200.548 285.197C198.025 285.892 195.404 287.658 192.937 286.004C188.417 282.974 191.578 274.078 196.985 274.954C198.15 275.148 198.829 275.941 199.883 276.205C201.338 271.604 205.553 272.41 208.95 271.145C210.489 270.576 211.432 269.45 212.832 268.713C215.036 267.56 222.287 265.127 224.616 265.225C229.011 265.405 229.566 268.129 231.923 270.576C232.866 271.549 234.391 272.132 235.431 273.05C239.41 276.636 239.132 281.417 237.76 286.198H237.732Z" fill="#DE5722"/>
<path d="M212.498 235.62C215.23 235.384 217.808 236.273 219.098 238.817C219.625 239.859 219.944 242.013 220.443 242.708C220.706 243.07 222.522 243.945 223.299 244.918C228.789 251.826 224.366 271.604 212.831 262.57C212.609 270.076 206.786 272.397 201.033 267.907C198.939 272.605 194.932 274.801 189.789 274.19C184.645 273.578 181.387 268.144 185.921 264.405L189.581 262.25C179.21 263.168 179.515 250.853 188.25 248.601C183.356 244.599 184.659 237.802 190.579 235.801C191.716 235.411 194.073 235.397 194.558 235.119C194.863 234.939 196.055 232.826 196.139 232.381C196.707 229.574 194.905 229.463 197.594 226.196C203.722 218.746 214.176 227.683 212.471 235.62H212.498Z" fill="#DE5722"/>
<path d="M197.32 180.335C196.229 179.032 195.085 177.768 193.994 176.465C187.782 169.046 178.489 163.71 169.114 161.718C164.483 160.731 157.898 160.731 151.686 159.967C143.146 158.924 135.34 156.436 134.273 148.055C134.107 146.721 134.093 145.234 134.287 143.566C134.647 140.577 136.186 137.895 136.852 134.99C132.942 135.796 130.225 138.965 128.394 142.315C127.715 141.258 126.828 140.285 126.176 139.215C125.33 137.839 124.748 135.949 124 134.754C123.792 134.406 124.013 134.17 123.251 134.323L122.516 140.008L122.197 142.426C121.961 142.899 121.809 143.107 121.254 142.815C119.868 142.106 115.348 139.743 112.52 138.604C116.194 142.398 116.554 143.274 117.774 145.637C121.878 153.559 117.081 159.258 115.473 161.482L103.508 177.368L93.6923 190.892C83.5831 203.847 86.1779 231.602 99.3489 247.961C115.917 268.546 145.101 274.064 168.656 262.639C164.081 237.801 178.819 223.04 196.842 207.751C199.019 206.264 203.261 201.594 203.261 195.256C202.903 188.087 199.478 182.914 197.32 180.335Z" fill="#DE5722"/>
<path d="M297.154 243.944L288.516 224.305C288.516 224.305 287.268 222.081 284.523 218.648L283.761 217.702C283.761 217.702 284.523 218.648 283.733 217.689C283.733 217.689 283.747 217.689 283.761 217.702L279.227 212.143C269.065 201.163 255.589 193.88 240.213 195.019C233.143 195.547 223.16 201.302 218.072 193.588C214.62 188.348 215.687 181.912 217.809 176.381C217.462 176.019 214.8 178.827 214.481 179.202C212.457 181.607 210.766 184.929 210.169 188.028C209.823 188.348 208.908 187.291 208.672 187.041C206.717 184.915 205.137 182.385 203.029 180.384C202.364 180.106 202.392 181.565 202.308 181.982C201.99 183.622 202.045 185.262 201.782 186.791C201.712 187.208 201.671 187.82 201.088 187.667C200.797 187.583 196.818 185.498 192.302 185.498L199.586 191.212C203.029 198.355 200.562 203.664 195.446 207.765C177.034 222.567 162.948 238.871 167.274 263.555L167.384 264.014L167.53 264.654C169.827 274.727 173.779 284.4 179.723 292.851C187.66 304.136 196.189 314.103 207.355 319.249C207.355 319.221 207.383 319.207 207.397 319.193C208.007 319.429 208.617 319.666 209.227 319.888C214.911 321.987 220.9 323.557 226.945 324.155C254.299 326.879 281.057 311.285 293.563 287.114C300.329 274.021 300.134 258.135 297.154 243.958V243.944ZM285.924 284.098C269.3 314.871 233.059 325.698 202.78 307.101C180.583 293.48 167.828 262.068 177.311 237.106C181.831 225.208 187.474 224.096 196.818 217.716C202.669 213.727 206.398 207.959 207.868 200.996C209.975 201.983 211.279 203.525 213.511 204.485C229.718 211.448 242.792 196.187 261.939 208.515C284.884 223.276 299.635 258.719 285.924 284.098Z" fill="#DE5722"/>
</svg>
