<svg width="100" height="34" viewBox="0 0 100 34" fill="none" xmlns="http://www.w3.org/2000/svg">
<path d="M25.8207 28.9363H27.2673C28.144 28.9363 28.5057 28.4869 28.5057 27.8513C28.5057 27.2486 28.144 26.7992 27.2673 26.7992H25.8207V28.9363ZM25.8207 32.8158H24.2974V25.539H27.5084C28.9331 25.539 29.8427 26.5801 29.8427 27.8951C29.8427 29.2212 28.9331 30.1746 27.5084 30.1746H25.8207V32.8158Z" fill="#220901"/>
<path d="M33.5598 31.7637C34.6557 31.7637 35.5325 30.9966 35.5325 29.276C35.5325 27.5554 34.8311 26.6458 33.5598 26.6458C32.2776 26.6458 31.5652 27.5554 31.5652 29.276C31.5652 30.9966 32.2995 31.7637 33.5598 31.7637ZM33.5598 33.0678C31.3241 33.0678 30.0638 31.6979 30.0638 29.2431C30.0638 26.7773 31.3241 25.2979 33.5598 25.2979C35.7955 25.2979 37.0339 26.7773 37.0339 29.276C37.0339 31.7746 35.7955 33.0678 33.5598 33.0678Z" fill="#220901"/>
<path d="M40.9345 26.7992H38.9728V28.739H40.8797C41.6906 28.739 41.9975 28.3335 41.9975 27.7746C41.9975 27.2047 41.6906 26.7992 40.9345 26.7992ZM43.2249 32.8158H41.7345V30.9418C41.7345 30.2404 41.4715 29.9664 40.5947 29.9664H38.9728V32.8158H37.4933V25.539H41.1865C42.5345 25.539 43.4222 26.4376 43.4222 27.6431C43.4222 28.4212 43.0386 29.0787 42.3372 29.3308C42.9838 29.539 43.2249 29.9006 43.2249 30.7555V32.8158Z" fill="#220901"/>
<path d="M47.336 32.8158H45.8127V26.8102H43.6208V25.539H49.5388V26.8102H47.336V32.8158Z" fill="#220901"/>
<path d="M54.2042 30.3938V25.539H55.7604V30.3938C55.7604 32.1582 54.6754 33.0678 52.7685 33.0678C51.0041 33.0678 49.8973 32.2349 49.8973 30.4815V25.539H51.4425V30.339C51.4425 31.2376 51.9247 31.8075 52.7466 31.8075C53.722 31.8075 54.2042 31.3472 54.2042 30.3938Z" fill="#220901"/>
<path d="M63.0037 32.8158H61.7434L61.7105 32.0925C61.3598 32.7062 60.5269 33.0678 59.5297 33.0678C57.5132 33.0678 56.231 31.1938 56.231 29.1664C56.231 27.0184 57.4584 25.2979 59.8146 25.2979C61.5461 25.2979 62.8832 26.328 62.9928 27.7856H61.4585C61.3818 27.1061 60.6475 26.5581 59.8146 26.5581C58.5981 26.5581 57.7872 27.5006 57.7872 29.2321C57.7872 30.4267 58.3899 31.7856 59.8036 31.7856C60.8009 31.7856 61.579 31.0294 61.579 30.1198H59.968V28.9034H63.0037V32.8158Z" fill="#220901"/>
<path d="M67.6855 30.065L66.7759 27.1718H66.7649L65.8334 30.065H67.6855ZM70.239 32.8158H68.5841L68.1239 31.3144H65.4389L64.9238 32.8158H63.3128L65.9101 25.539H67.6745L70.239 32.8158Z" fill="#220901"/>
<path d="M75.703 32.8158H70.5741V25.539H72.0974V31.4897H75.703V32.8158Z" fill="#220901"/>
<path d="M1.55518 18.9276C1.14996 18.9276 0.810099 18.8361 0.535594 18.6531C0.261089 18.457 0.0911577 18.1956 0.0257993 17.8688C-0.039559 17.5289 0.0192635 17.1498 0.202267 16.7316L5.08453 6.22205C5.31982 5.71226 5.6074 5.33972 5.94726 5.10443C6.3002 4.86915 6.69889 4.7515 7.14332 4.7515C7.58776 4.7515 7.97337 4.86915 8.30016 5.10443C8.64003 5.33972 8.93414 5.71226 9.1825 6.22205L14.0648 16.7316C14.2739 17.1498 14.3458 17.5289 14.2805 17.8688C14.2282 18.2086 14.0648 18.4701 13.7903 18.6531C13.5288 18.8361 13.202 18.9276 12.8099 18.9276C12.287 18.9276 11.8818 18.8099 11.5942 18.5746C11.3197 18.3394 11.0714 17.9603 10.8491 17.4374L9.79034 14.9473L11.1629 15.9473H3.08457L4.4767 14.9473L3.4179 17.4374C3.18261 17.9603 2.94078 18.3394 2.69242 18.5746C2.44406 18.8099 2.06498 18.9276 1.55518 18.9276ZM7.10411 8.69257L4.82964 14.1238L4.28063 13.1826H9.98641L9.4374 14.1238L7.14332 8.69257H7.10411Z" fill="#DE5722"/>
<path d="M16.6862 18.9276C16.111 18.9276 15.6666 18.7707 15.3529 18.457C15.0392 18.1302 14.8823 17.6792 14.8823 17.1041V6.75145C14.8823 6.16323 15.0392 5.71226 15.3529 5.39854C15.6797 5.08483 16.1307 4.92797 16.7058 4.92797H21.5293C23.0979 4.92797 24.307 5.31358 25.1566 6.0848C26.0194 6.84295 26.4507 7.90174 26.4507 9.26118C26.4507 10.137 26.2547 10.9017 25.8625 11.5552C25.4834 12.1957 24.9279 12.6925 24.1959 13.0454C23.4769 13.3852 22.5881 13.5552 21.5293 13.5552L21.6861 13.2022H22.6273C23.1894 13.2022 23.6861 13.3395 24.1174 13.614C24.5488 13.8754 24.9083 14.2806 25.1959 14.8297L26.1762 16.5943C26.3854 16.9734 26.4834 17.3459 26.4703 17.7119C26.4573 18.0649 26.3135 18.359 26.039 18.5943C25.7775 18.8165 25.3919 18.9276 24.8821 18.9276C24.3723 18.9276 23.954 18.823 23.6273 18.6139C23.3135 18.4047 23.0325 18.0779 22.7841 17.6335L20.9998 14.3591C20.843 14.0715 20.6404 13.8754 20.392 13.7709C20.1567 13.6532 19.8822 13.5944 19.5685 13.5944H18.4901V17.1041C18.4901 17.6792 18.3398 18.1302 18.0391 18.457C17.7385 18.7707 17.2875 18.9276 16.6862 18.9276ZM18.4901 11.0454H20.8822C21.575 11.0454 22.1044 10.9082 22.4704 10.6337C22.8364 10.3592 23.0194 9.93436 23.0194 9.35922C23.0194 8.81021 22.8364 8.39846 22.4704 8.12396C22.1044 7.83638 21.575 7.6926 20.8822 7.6926H18.4901V11.0454Z" fill="#DE5722"/>
<path d="M29.4125 18.9276C28.8897 18.9276 28.4844 18.7838 28.1969 18.4962C27.9224 18.2086 27.7851 17.8034 27.7851 17.2806V6.39851C27.7851 5.86258 27.9354 5.45736 28.2361 5.18286C28.5367 4.89529 28.9616 4.7515 29.5106 4.7515C29.9681 4.7515 30.3276 4.843 30.589 5.026C30.8635 5.19593 31.1119 5.48351 31.3341 5.88873L35.5497 13.4571H34.8634L39.0594 5.88873C39.2947 5.48351 39.5431 5.19593 39.8045 5.026C40.079 4.843 40.445 4.7515 40.9025 4.7515C41.4254 4.7515 41.8241 4.89529 42.0986 5.18286C42.3862 5.45736 42.53 5.86258 42.53 6.39851V17.2806C42.53 17.8034 42.3927 18.2086 42.1182 18.4962C41.8437 18.7838 41.4385 18.9276 40.9025 18.9276C40.3797 18.9276 39.9744 18.7838 39.6869 18.4962C39.4124 18.2086 39.2751 17.8034 39.2751 17.2806V10.5357H39.6869L36.5301 16.0257C36.3471 16.3133 36.151 16.529 35.9418 16.6727C35.7458 16.8165 35.4778 16.8884 35.1379 16.8884C34.8111 16.8884 34.5432 16.8165 34.334 16.6727C34.1249 16.529 33.9353 16.3133 33.7654 16.0257L30.589 10.516H31.04V17.2806C31.04 17.8034 30.9027 18.2086 30.6282 18.4962C30.3537 18.7838 29.9485 18.9276 29.4125 18.9276Z" fill="#DE5722"/>
<path d="M45.9767 18.7511C45.3624 18.7511 44.8918 18.5943 44.565 18.2805C44.2513 17.9537 44.0944 17.4897 44.0944 16.8884V6.79066C44.0944 6.18937 44.2513 5.73187 44.565 5.41815C44.8918 5.09136 45.3624 4.92797 45.9767 4.92797H52.6237C53.0943 4.92797 53.4472 5.04561 53.6825 5.2809C53.9178 5.51619 54.0354 5.85605 54.0354 6.30048C54.0354 6.75798 53.9178 7.11091 53.6825 7.35927C53.4472 7.59456 53.0943 7.7122 52.6237 7.7122H47.5453V10.3396H52.1923C52.6498 10.3396 52.9962 10.4572 53.2315 10.6925C53.4799 10.9278 53.6041 11.2742 53.6041 11.7317C53.6041 12.1892 53.4799 12.5356 53.2315 12.7709C52.9962 13.0062 52.6498 13.1238 52.1923 13.1238H47.5453V15.9669H52.6237C53.0943 15.9669 53.4472 16.0911 53.6825 16.3394C53.9178 16.5747 54.0354 16.9146 54.0354 17.359C54.0354 17.8165 53.9178 18.1629 53.6825 18.3982C53.4472 18.6335 53.0943 18.7511 52.6237 18.7511H45.9767ZM50.7218 3.59467C50.4995 3.81689 50.2577 3.92799 49.9963 3.92799C49.7479 3.92799 49.5192 3.8561 49.31 3.71232C49.1139 3.55546 48.9832 3.36592 48.9179 3.1437C48.8525 2.90842 48.9048 2.66659 49.0747 2.41823L50.3492 0.516325C50.5322 0.241823 50.7544 0.0784293 51.0159 0.0261431C51.2773 -0.0261431 51.5322 0 51.7806 0.104572C52.0289 0.196073 52.2381 0.346395 52.408 0.55554C52.5779 0.751613 52.6694 0.973829 52.6825 1.22219C52.6956 1.47055 52.5845 1.71237 52.3492 1.94766L50.7218 3.59467Z" fill="#DE5722"/>
<path d="M56.8443 18.9276C56.2953 18.9276 55.877 18.7838 55.5895 18.4962C55.3019 18.2086 55.1581 17.7838 55.1581 17.2217V6.53577C55.1581 5.96062 55.3019 5.52272 55.5895 5.22208C55.877 4.90836 56.2561 4.7515 56.7267 4.7515C57.145 4.7515 57.4718 4.82993 57.7071 4.98679C57.9424 5.14365 58.2038 5.40508 58.4914 5.77108L64.707 13.5356H64.1579V6.43773C64.1579 5.88873 64.2952 5.47044 64.5697 5.18286C64.8573 4.89529 65.2756 4.7515 65.8246 4.7515C66.3736 4.7515 66.7853 4.89529 67.0599 5.18286C67.3474 5.47044 67.4912 5.88873 67.4912 6.43773V17.3002C67.4912 17.7969 67.3605 18.1956 67.0991 18.4962C66.8376 18.7838 66.4847 18.9276 66.0403 18.9276C65.5958 18.9276 65.2429 18.8491 64.9815 18.6923C64.7331 18.5224 64.4651 18.2609 64.1775 17.908L57.962 10.1239H58.511V17.2217C58.511 17.7838 58.3672 18.2086 58.0796 18.4962C57.8051 18.7838 57.3934 18.9276 56.8443 18.9276Z" fill="#DE5722"/>
<path d="M70.8404 18.9276C70.2653 18.9276 69.8208 18.7707 69.5071 18.457C69.1934 18.1302 69.0365 17.6727 69.0365 17.0845V6.59459C69.0365 5.9933 69.1934 5.53579 69.5071 5.22208C69.8208 4.90836 70.2653 4.7515 70.8404 4.7515C71.4286 4.7515 71.8731 4.90836 72.1737 5.22208C72.4875 5.53579 72.6443 5.9933 72.6443 6.59459V17.0845C72.6443 17.6727 72.494 18.1302 72.1933 18.457C71.8927 18.7707 71.4417 18.9276 70.8404 18.9276Z" fill="#DE5722"/>
<path d="M80.8309 18.9668C79.4322 18.9668 78.2035 18.6727 77.1447 18.0845C76.0859 17.4832 75.2624 16.6466 74.6741 15.5747C74.099 14.5029 73.8114 13.2545 73.8114 11.8297C73.8114 10.7579 73.9748 9.78404 74.3016 8.90825C74.6415 8.03246 75.1186 7.28084 75.733 6.65341C76.3604 6.02598 77.1055 5.54887 77.9682 5.22208C78.8309 4.88222 79.7852 4.71229 80.8309 4.71229C82.2296 4.71229 83.4518 5.0064 84.4975 5.59462C85.5563 6.18283 86.3798 7.01288 86.9681 8.08474C87.5563 9.14354 87.8504 10.3919 87.8504 11.8297C87.8504 12.9016 87.6805 13.8754 87.3406 14.7512C87.0138 15.627 86.5367 16.3852 85.9093 17.0257C85.2949 17.6531 84.5563 18.1367 83.6936 18.4766C82.8309 18.8034 81.8766 18.9668 80.8309 18.9668ZM80.8309 15.9473C81.5237 15.9473 82.1119 15.7839 82.5956 15.4571C83.0792 15.1303 83.4518 14.6597 83.7132 14.0454C83.9746 13.431 84.1054 12.6925 84.1054 11.8297C84.1054 10.5357 83.8178 9.52915 83.2426 8.81021C82.6675 8.09128 81.8636 7.73181 80.8309 7.73181C80.1512 7.73181 79.563 7.89521 79.0662 8.22199C78.5826 8.53571 78.21 8.99975 77.9486 9.61411C77.6872 10.2154 77.5565 10.9539 77.5565 11.8297C77.5565 13.1238 77.844 14.1369 78.4192 14.8689C78.9943 15.5878 79.7982 15.9473 80.8309 15.9473Z" fill="#DE5722"/>
<path d="M94.1374 18.9668C93.6145 18.9668 93.0655 18.9276 92.4903 18.8491C91.9282 18.7838 91.3923 18.6792 90.8825 18.5354C90.3727 18.3916 89.9152 18.2217 89.51 18.0256C89.1571 17.8557 88.9087 17.6335 88.7649 17.359C88.6211 17.0714 88.5688 16.7708 88.608 16.4571C88.6473 16.1433 88.7584 15.8688 88.9414 15.6336C89.1244 15.3852 89.3662 15.2218 89.6668 15.1434C89.9675 15.0519 90.3074 15.0911 90.6864 15.261C91.1832 15.4963 91.7452 15.6793 92.3727 15.81C93.0001 15.9407 93.5883 16.0061 94.1374 16.0061C95.0001 16.0061 95.6014 15.895 95.9412 15.6728C96.2942 15.4375 96.4707 15.1499 96.4707 14.81C96.4707 14.5094 96.3465 14.2676 96.0981 14.0846C95.8628 13.9016 95.438 13.7447 94.8236 13.614L92.5295 13.1238C91.2747 12.8624 90.34 12.4049 89.7257 11.7513C89.1113 11.0977 88.8041 10.2546 88.8041 9.22196C88.8041 8.54224 88.9414 7.92788 89.2159 7.37888C89.5034 6.8168 89.9021 6.33969 90.4119 5.94755C90.9348 5.5554 91.5492 5.25476 92.255 5.04561C92.974 4.82339 93.7714 4.71229 94.6472 4.71229C95.3269 4.71229 96.0131 4.79072 96.7059 4.94757C97.4118 5.09136 98.0196 5.31358 98.5294 5.61422C98.8301 5.77108 99.0458 5.98676 99.1765 6.26126C99.3072 6.53577 99.3595 6.82334 99.3333 7.12398C99.3072 7.41156 99.2026 7.66645 99.0196 7.88867C98.8497 8.11089 98.6144 8.26121 98.3138 8.33964C98.0262 8.40499 97.6798 8.35271 97.2746 8.18278C96.8955 8.01285 96.4641 7.88867 95.9805 7.81024C95.5099 7.71874 95.0524 7.67299 94.6079 7.67299C94.1243 7.67299 93.7125 7.73181 93.3727 7.84945C93.0328 7.95403 92.7714 8.11088 92.5884 8.32003C92.4184 8.52917 92.3335 8.771 92.3335 9.0455C92.3335 9.32 92.4446 9.55529 92.6668 9.75136C92.9021 9.93436 93.3269 10.0912 93.9413 10.2219L96.2157 10.7121C97.4837 10.9866 98.4314 11.4376 99.0588 12.065C99.6863 12.6925 100 13.5094 100 14.5159C100 15.1957 99.8627 15.81 99.5882 16.359C99.3137 16.908 98.9216 17.3786 98.4118 17.7707C97.902 18.1498 97.2876 18.4439 96.5687 18.6531C95.8497 18.8622 95.0393 18.9668 94.1374 18.9668Z" fill="#DE5722"/>
</svg>
